<svg width="16" height="16" viewBox="0 0 16 16" fill="none" xmlns="http://www.w3.org/2000/svg">
<path d="M4.33336 11C4.59857 11 4.85293 10.8946 5.04046 10.7071C5.228 10.5196 5.33336 10.2652 5.33336 10V7.33334C5.33341 7.07155 5.2308 6.82018 5.04757 6.63321C4.86434 6.44624 4.61509 6.33857 4.35336 6.33334C4.43532 5.60022 4.78453 4.923 5.33425 4.43108C5.88397 3.93916 6.59567 3.66702 7.33336 3.66667H8.66669C9.40438 3.66702 10.1161 3.93916 10.6658 4.43108C11.2155 4.923 11.5647 5.60022 11.6467 6.33334C11.385 6.33857 11.1357 6.44624 10.9525 6.63321C10.7692 6.82018 10.6666 7.07155 10.6667 7.33334V10C10.6662 10.2551 10.7633 10.5008 10.9381 10.6867C11.1128 10.8726 11.352 10.9847 11.6067 11C11.5379 11.1945 11.4107 11.363 11.2424 11.4824C11.0741 11.6017 10.873 11.6661 10.6667 11.6667H9.27336C9.19472 11.4443 9.04 11.2568 8.83653 11.1375C8.63306 11.0181 8.39394 10.9745 8.16144 11.0144C7.92895 11.0543 7.71803 11.1751 7.56599 11.3555C7.41394 11.5358 7.33055 11.7641 7.33055 12C7.33055 12.2359 7.41394 12.4642 7.56599 12.6446C7.71803 12.8249 7.92895 12.9457 8.16144 12.9856C8.39394 13.0255 8.63306 12.9819 8.83653 12.8625C9.04 12.7432 9.19472 12.5557 9.27336 12.3333H10.6667C11.0722 12.3315 11.4631 12.1819 11.7663 11.9125C12.0694 11.6431 12.2639 11.2725 12.3134 10.87C12.6157 10.7427 12.8738 10.529 13.0553 10.2556C13.2367 9.98227 13.3335 9.66143 13.3334 9.33334V8C13.3338 7.67529 13.2395 7.3575 13.0618 7.08569C12.8841 6.81388 12.631 6.59989 12.3334 6.47C12.283 5.53203 11.8745 4.64916 11.1923 4.0035C10.51 3.35785 9.60602 2.99865 8.66669 3H7.33336C6.39403 2.99865 5.49001 3.35785 4.80776 4.0035C4.12551 4.64916 3.71707 5.53203 3.66669 6.47C3.36908 6.59989 3.1159 6.81388 2.93824 7.08569C2.76059 7.3575 2.66621 7.67529 2.66669 8V9.33334C2.66669 9.77536 2.84228 10.1993 3.15484 10.5118C3.4674 10.8244 3.89133 11 4.33336 11ZM8.33336 12.3333C8.26743 12.3333 8.20298 12.3138 8.14817 12.2772C8.09335 12.2405 8.05062 12.1885 8.0254 12.1276C8.00017 12.0667 7.99357 11.9996 8.00643 11.935C8.01929 11.8703 8.05104 11.8109 8.09765 11.7643C8.14427 11.7177 8.20366 11.6859 8.26833 11.6731C8.33299 11.6602 8.40001 11.6668 8.46092 11.692C8.52183 11.7173 8.57389 11.76 8.61051 11.8148C8.64714 11.8696 8.66669 11.9341 8.66669 12C8.66669 12.0884 8.63157 12.1732 8.56906 12.2357C8.50655 12.2982 8.42176 12.3333 8.33336 12.3333ZM12.6667 8V9.33334C12.6667 9.59855 12.5613 9.85291 12.3738 10.0404C12.1863 10.228 11.9319 10.3333 11.6667 10.3333C11.5783 10.3333 11.4935 10.2982 11.431 10.2357C11.3685 10.1732 11.3334 10.0884 11.3334 10V7.33334C11.3334 7.24493 11.3685 7.16015 11.431 7.09763C11.4935 7.03512 11.5783 7 11.6667 7C11.9319 7 12.1863 7.10536 12.3738 7.2929C12.5613 7.48043 12.6667 7.73479 12.6667 8ZM3.33336 8C3.33336 7.73479 3.43871 7.48043 3.62625 7.2929C3.81378 7.10536 4.06814 7 4.33336 7C4.42176 7 4.50655 7.03512 4.56906 7.09763C4.63157 7.16015 4.66669 7.24493 4.66669 7.33334V10C4.66669 10.0884 4.63157 10.1732 4.56906 10.2357C4.50655 10.2982 4.42176 10.3333 4.33336 10.3333C4.06814 10.3333 3.81378 10.228 3.62625 10.0404C3.43871 9.85291 3.33336 9.59855 3.33336 9.33334V8Z" fill="#074640"/>
</svg>
