<svg width="12" height="12" viewBox="0 0 12 12" fill="none" xmlns="http://www.w3.org/2000/svg">
<g clip-path="url(#clip0_30_197)">
<path d="M4.36395 0.400083C4.36395 0.179142 4.60823 0 4.90952 0H7.09116C7.39245 0 7.63673 0.179142 7.63673 0.400083C7.63673 0.621024 7.39245 0.800166 7.09116 0.800166H4.90952C4.60823 0.800166 4.36395 0.621024 4.36395 0.400083ZM12 10.336C12 11.2536 10.9821 12 9.73083 12H2.26917C1.01787 12 0 11.2536 0 10.336C0 10.0424 0.10518 9.75575 0.303325 9.50645L4.36395 4.29392V2.00041C4.36395 1.55903 4.8532 1.20025 5.4551 1.20025H6.54626C7.14748 1.20025 7.63741 1.55903 7.63741 2.00041V4.29392L11.7001 9.50943C11.8962 9.75575 12.0014 10.0429 12.0014 10.336H12ZM10.9095 10.336C10.9095 10.1842 10.8559 10.0369 10.7548 9.90952L6.61819 4.59847C6.57069 4.53776 6.54626 4.46958 6.54626 4.39992V1.99992H5.4551V4.39992C5.4551 4.46958 5.43067 4.53776 5.38317 4.59847L1.24859 9.90603C1.14476 10.0364 1.09116 10.1837 1.09116 10.3355C1.09116 10.8122 1.61977 11.1993 2.26917 11.1993H9.73083C10.3809 11.1993 10.9088 10.8117 10.9088 10.3355L10.9095 10.336Z" fill="#074640"/>
</g>
<defs>
<clipPath id="clip0_30_197">
<rect width="12" height="12" fill="white"/>
</clipPath>
</defs>
</svg>
