<svg width="147" height="121" viewBox="0 0 147 121" fill="none" xmlns="http://www.w3.org/2000/svg">
<g opacity="0.4">
<path d="M124.274 82.2872C123.742 93.172 120.12 103.68 113.834 112.582C107.547 121.483 98.8552 128.41 88.7753 132.553C78.6953 136.695 67.6442 137.88 56.915 135.971C46.1858 134.061 36.2223 129.136 28.1904 121.77C20.1584 114.405 14.3902 104.904 11.5607 94.3803C8.73115 83.8562 8.95738 72.744 12.2129 62.3438C15.4684 51.9436 21.6185 42.6857 29.9435 35.6533C38.2686 28.6209 48.4243 24.1048 59.2224 22.6336C53.2468 31.4956 50.6505 42.2079 51.9055 52.8223C53.1606 63.4368 58.1838 73.2482 66.0614 80.472C73.939 87.6959 84.1478 91.8524 94.831 92.1855C105.514 92.5187 115.962 89.0063 124.274 82.2872Z" stroke="#35788D" stroke-width="4" stroke-linecap="round" stroke-linejoin="round"/>
</g>
</svg>
